<?xml version="1.0" encoding="utf-8"?>
<!-- Generator: Adobe Illustrator 15.1.0, SVG Export Plug-In . SVG Version: 6.00 Build 0)  -->
<!DOCTYPE svg PUBLIC "-//W3C//DTD SVG 1.1//EN" "http://www.w3.org/Graphics/SVG/1.1/DTD/svg11.dtd">
<svg version="1.1" id="レイヤー_1" xmlns="http://www.w3.org/2000/svg" xmlns:xlink="http://www.w3.org/1999/xlink" x="0px"
	 y="0px" width="24px" height="24px" viewBox="0 0 24 24" style="enable-background:new 0 0 24 24;" xml:space="preserve">
<path d="M7.29,18l11.5-11.5L16.5,4.21L5,15.71V18H7.29z M4,18.5v-3c0-0.13,0.05-0.26,0.15-0.35l12-12c0.2-0.2,0.51-0.2,0.71,0l3,3
	c0.2,0.2,0.2,0.51,0,0.71l-12,12C7.76,18.95,7.63,19,7.5,19h-3C4.22,19,4,18.78,4,18.5z M4.5,21C4.22,21,4,20.78,4,20.5
	S4.22,20,4.5,20h10.01c0.28,0,0.5,0.22,0.5,0.5s-0.22,0.5-0.5,0.5H4.5z"/>
</svg>
