<?xml version="1.0" encoding="utf-8"?>
<!-- Generator: Adobe Illustrator 15.1.0, SVG Export Plug-In . SVG Version: 6.00 Build 0)  -->
<!DOCTYPE svg PUBLIC "-//W3C//DTD SVG 1.1//EN" "http://www.w3.org/Graphics/SVG/1.1/DTD/svg11.dtd">
<svg version="1.1" id="レイヤー_1" xmlns="http://www.w3.org/2000/svg" xmlns:xlink="http://www.w3.org/1999/xlink" x="0px"
	 y="0px" width="24px" height="24px" viewBox="0 0 24 24" style="enable-background:new 0 0 24 24;" xml:space="preserve">
<path d="M10.86,20h0.3c0.44-0.03,0.86-0.22,1.19-0.55l0.7-0.7l-7.79-7.79l-0.7,0.7c-0.74,0.74-0.74,1.95,0,2.69l5.11,5.11
	C10,19.78,10.42,19.97,10.86,20z M13.21,20h5.29c0.28,0,0.5,0.22,0.5,0.5S18.78,21,18.5,21h-7.31c-0.12,0.01-0.25,0.01-0.37,0H5.5
	C5.22,21,5,20.78,5,20.5S5.22,20,5.5,20h3.3l-4.95-4.95c-1.13-1.13-1.13-2.97,0-4.1l7.11-7.11c1.13-1.13,2.97-1.13,4.1,0l5.11,5.11
	c1.13,1.13,1.13,2.97,0,4.1L13.21,20z M5.96,10.25l7.79,7.79l5.7-5.7c0.74-0.74,0.74-1.95,0-2.69l-5.11-5.11
	c-0.74-0.74-1.95-0.74-2.69,0L5.96,10.25z"/>
</svg>
