<?xml version="1.0" encoding="utf-8"?>
<!-- Generator: Adobe Illustrator 15.1.0, SVG Export Plug-In . SVG Version: 6.00 Build 0)  -->
<!DOCTYPE svg PUBLIC "-//W3C//DTD SVG 1.1//EN" "http://www.w3.org/Graphics/SVG/1.1/DTD/svg11.dtd">
<svg version="1.1" id="レイヤー_1" xmlns="http://www.w3.org/2000/svg" xmlns:xlink="http://www.w3.org/1999/xlink" x="0px"
	 y="0px" width="24px" height="24px" viewBox="0 0 24 24" style="enable-background:new 0 0 24 24;" xml:space="preserve">
<path d="M20,6.528V19.5c0,1.381-1.119,2.5-2.5,2.5h-11C5.119,22,4,20.881,4,19.5v-15C4,3.119,5.119,2,6.5,2h8.973
	c0.133-0.008,0.271,0.036,0.381,0.146l4,4C19.965,6.257,20.008,6.395,20,6.528z M15,3H6.5C5.671,3,5,3.671,5,4.5v15
	C5,20.328,5.671,21,6.5,21h11c0.828,0,1.5-0.672,1.5-1.5V7h-3.5C15.224,7,15,6.776,15,6.5V3z M16,3.707V6h2.293L16,3.707z"/>
</svg>
